<svg xmlns="http://www.w3.org/2000/svg" version="1.1" xmlns:xlink="http://www.w3.org/1999/xlink" width="1000" height="1000"><g clip-path="url(#SvgjsClipPath1086)"><rect width="1000" height="1000" fill="#000000"></rect><g transform="matrix(1.7857142857142858,0,0,1.7857142857142858,150,392.85714285714283)"><svg xmlns="http://www.w3.org/2000/svg" version="1.1" xmlns:xlink="http://www.w3.org/1999/xlink" width="392" height="120"><svg width="392" height="120" viewBox="0 0 392 120" fill="none" xmlns="http://www.w3.org/2000/svg">
<path d="M123.519 94.532H130.462V117.711C129.888 117.901 129.066 118.118 127.991 118.355C126.916 118.595 125.676 118.832 124.268 119.069C122.859 119.306 121.319 119.51 119.649 119.677C117.98 119.844 116.284 119.927 114.567 119.927C111.084 119.927 107.908 119.353 105.046 118.209C102.181 117.064 99.7235 115.395 97.6727 113.2C95.6193 111.007 94.033 108.312 92.911 105.118C91.7891 101.924 91.2281 98.25 91.2281 94.1018C91.2281 89.9537 91.8596 86.2696 93.125 83.0496C94.3878 79.8296 96.0968 77.1232 98.2441 74.9305C100.391 72.7378 102.909 71.0665 105.798 69.9219C108.686 68.7773 111.775 68.2037 115.068 68.2037C117.312 68.2037 119.302 68.3471 121.045 68.6339C122.788 68.9207 124.278 69.2545 125.52 69.6351C126.759 70.0184 127.774 70.3991 128.562 70.7797C129.35 71.163 129.888 71.4472 130.172 71.6375L127.952 77.4309C126.566 76.5262 124.729 75.7753 122.439 75.1782C120.148 74.5811 117.81 74.2839 115.423 74.2839C112.892 74.2839 110.59 74.7376 108.514 75.6423C106.437 76.5496 104.67 77.8611 103.217 79.5767C101.761 81.2949 100.629 83.3807 99.8174 85.8368C99.006 88.2928 98.6016 91.0487 98.6016 94.0992C98.6016 97.1498 98.946 99.7518 99.64 102.182C100.331 104.614 101.383 106.7 102.789 108.442C104.196 110.184 105.938 111.532 108.015 112.483C110.092 113.437 112.537 113.915 115.352 113.915C117.356 113.915 119.062 113.808 120.471 113.594C121.878 113.38 122.893 113.177 123.514 112.986V94.5294L123.519 94.532Z" fill="#E6EBF0"></path>
<path d="M167.566 98.1821C168.328 99.1364 169.296 100.388 170.465 101.937C171.634 103.488 172.839 105.204 174.081 107.089C175.32 108.974 176.552 110.94 177.768 112.991C178.984 115.043 180.022 117.022 180.883 118.928H173.296C172.341 117.116 171.302 115.281 170.18 113.419C169.059 111.56 167.926 109.782 166.781 108.09C165.635 106.398 164.5 104.812 163.381 103.331C162.259 101.853 161.244 100.565 160.339 99.4675C159.718 99.5144 159.086 99.5379 158.442 99.5379H150.244V118.926H143.301V70.0652C145.258 69.5881 147.442 69.2674 149.853 69.1005C152.261 68.9337 154.471 68.8502 156.475 68.8502C163.441 68.8502 168.753 70.1617 172.403 72.7846C176.054 75.4075 177.88 79.3184 177.88 84.5174C177.88 87.8077 177.009 90.6236 175.268 92.9597C173.525 95.2958 170.961 97.0375 167.571 98.1821H167.566ZM157.043 74.9304C154.085 74.9304 151.817 75.0008 150.241 75.1442V93.8149H155.181C157.565 93.8149 159.715 93.6976 161.623 93.4577C163.53 93.2204 165.142 92.7668 166.455 92.0993C167.767 91.4319 168.782 90.4906 169.497 89.273C170.212 88.058 170.572 86.4467 170.572 84.4444C170.572 82.5854 170.214 81.034 169.497 79.7956C168.782 78.5571 167.814 77.5768 166.598 76.8624C165.382 76.148 163.95 75.6474 162.304 75.3606C160.657 75.0738 158.904 74.9304 157.041 74.9304H157.043Z" fill="#E6EBF0"></path>
<path d="M187.103 94.1044C187.103 89.8597 187.735 86.1157 189 82.8722C190.263 79.6287 191.982 76.9224 194.156 74.7531C196.327 72.5839 198.855 70.9517 201.743 69.8541C204.631 68.7564 207.697 68.2089 210.943 68.2089C214.189 68.2089 217.158 68.7564 219.999 69.8541C222.838 70.9517 225.332 72.5839 227.48 74.7531C229.627 76.925 231.333 79.6287 232.599 82.8722C233.861 86.1157 234.495 89.8597 234.495 94.1044C234.495 98.349 233.861 102.093 232.599 105.337C231.333 108.58 229.627 111.286 227.48 113.456C225.332 115.627 222.838 117.26 219.999 118.355C217.158 119.452 214.139 120 210.943 120C207.747 120 204.631 119.452 201.743 118.355C198.855 117.257 196.327 115.625 194.156 113.456C191.982 111.286 190.266 108.58 189 105.337C187.735 102.093 187.103 98.3516 187.103 94.1044ZM194.404 94.1044C194.404 97.108 194.785 99.8404 195.549 102.296C196.311 104.752 197.399 106.838 198.805 108.557C200.212 110.275 201.931 111.597 203.961 112.527C205.988 113.458 208.269 113.922 210.797 113.922C213.325 113.922 215.592 113.458 217.599 112.527C219.603 111.597 221.309 110.275 222.718 108.557C224.124 106.838 225.212 104.755 225.974 102.296C226.736 99.8404 227.119 97.1106 227.119 94.1044C227.119 91.0982 226.736 88.3709 225.974 85.9123C225.21 83.4562 224.124 81.3704 222.718 79.6522C221.309 77.934 219.603 76.6121 217.599 75.6813C215.595 74.7505 213.328 74.2864 210.797 74.2864C208.266 74.2864 205.988 74.7505 203.961 75.6813C201.931 76.6121 200.214 77.934 198.805 79.6522C197.396 81.3704 196.311 83.4562 195.549 85.9123C194.785 88.3683 194.404 91.0982 194.404 94.1044Z" fill="#E6EBF0"></path>
<path d="M264.56 120C261.315 120 258.5 119.499 256.112 118.498C253.725 117.497 251.768 116.125 250.242 114.384C248.713 112.642 247.58 110.582 246.842 108.197C246.101 105.814 245.733 103.238 245.733 100.471V69.3534H252.676V99.6865C252.676 104.648 253.774 108.249 255.969 110.488C258.163 112.731 261.028 113.852 264.56 113.852C266.327 113.852 267.937 113.578 269.393 113.028C270.848 112.48 272.101 111.633 273.15 110.488C274.199 109.344 275.01 107.879 275.584 106.09C276.158 104.301 276.442 102.169 276.442 99.6865V69.3534H283.385V100.471C283.385 103.238 283.015 105.814 282.276 108.197C281.535 110.582 280.39 112.645 278.84 114.384C277.288 116.125 275.334 117.497 272.97 118.498C270.606 119.499 267.804 120 264.558 120H264.56Z" fill="#E6EBF0"></path>
<path d="M310.168 68.8504C317.134 68.8504 322.494 70.1749 326.24 72.8213C329.987 75.4677 331.86 79.4151 331.86 84.6609C331.86 87.5237 331.346 89.9667 330.321 91.9926C329.293 94.0211 327.816 95.6663 325.883 96.9282C323.949 98.1927 321.599 99.1105 318.83 99.6815C316.062 100.255 312.936 100.539 309.453 100.539H303.94V118.923H296.997V70.0628C298.954 69.5856 301.138 69.2649 303.549 69.0981C305.957 68.9312 308.167 68.8478 310.171 68.8478L310.168 68.8504ZM310.742 74.9306C307.783 74.9306 305.516 75.001 303.94 75.1444V94.6025H309.166C311.551 94.6025 313.701 94.4487 315.608 94.1384C317.515 93.8281 319.128 93.3041 320.44 92.5636C321.753 91.8257 322.768 90.8115 323.482 89.5235C324.197 88.2355 324.557 86.5903 324.557 84.5879C324.557 82.5855 324.187 81.1072 323.449 79.8661C322.708 78.6277 321.706 77.6369 320.443 76.8965C319.177 76.1586 317.711 75.645 316.041 75.3582C314.371 75.0714 312.605 74.928 310.745 74.928L310.742 74.9306Z" fill="#E6EBF0"></path>
<path d="M158.283 0.00521567H158.27C155.616 2.94101 150.445 9.16459 147.909 12.2125C145.373 15.2604 141.423 20.4202 138.764 23.8045C136.103 27.1887 131.824 32.5441 128.969 36.3403C126.112 40.1391 122.306 44.9808 119 49.4653L127.508 49.5488L137.099 36.8304H158.283V49.4627H165.21V0H158.283V0.00521567ZM158.283 31.1205H141.339L143.513 28.0987C143.513 28.0987 148.66 21.119 151.194 17.8208C153.192 15.2239 156.827 10.901 158.283 9.18284V31.1179V31.1205Z" fill="#E6EBF0"></path>
<path d="M247.515 22.2714C245.918 18.2744 244.337 14.4548 242.766 10.815C241.196 7.17525 239.552 3.56938 237.838 0.00262451H231.482C229.768 3.57199 228.124 7.17525 226.553 10.815C224.983 14.4548 223.399 18.2744 221.805 22.2714C220.208 26.2684 218.577 30.4922 216.913 34.9402C215.245 39.3908 213.461 44.2299 211.556 49.4653H218.77L223.271 36.8331H245.699C246.461 38.9737 247.199 41.0803 247.914 43.1505C248.629 45.2207 249.388 47.3248 250.2 49.468H257.772C255.867 44.2351 254.08 39.3934 252.415 34.9428C250.748 30.4948 249.117 26.271 247.523 22.274L247.515 22.2714ZM225.264 31.1205C226.739 26.9802 228.228 22.9728 229.729 19.0931C231.229 15.2161 232.81 11.4929 234.477 7.92354C236.095 11.4929 237.655 15.2161 239.155 19.0931C240.656 22.9728 242.166 26.9802 243.69 31.1205H225.262H225.264Z" fill="#E6EBF0"></path>
<path d="M256.506 5.99675H272.078V49.4653H279.005V5.99675H294.576V0H256.506V5.99675Z" fill="#E6EBF0"></path>
<path d="M386.013 34.9402C384.346 30.4922 382.715 26.2684 381.121 22.2714C379.524 18.2744 377.943 14.4548 376.372 10.815C374.802 7.17525 373.158 3.56938 371.444 0.00262451H365.088C363.374 3.57199 361.73 7.17525 360.159 10.815C358.588 14.4548 357.005 18.2744 355.411 22.2714C353.814 26.2684 352.183 30.4922 350.518 34.9402C348.851 39.3908 347.067 44.2299 345.162 49.4653H352.376L356.877 36.8331H379.305C380.067 38.9737 380.805 41.0803 381.52 43.1505C382.235 45.2207 382.994 47.3248 383.806 49.468H391.377C389.473 44.2351 387.685 39.3934 386.021 34.9428L386.013 34.9402ZM358.87 31.1205C360.344 26.9802 361.834 22.9728 363.334 19.0931C364.835 15.2161 366.416 11.4929 368.083 7.92354C369.701 11.4929 371.261 15.2161 372.761 19.0931C374.261 22.9728 375.772 26.9802 377.296 31.1205H358.868H358.87Z" fill="#E6EBF0"></path>
<path d="M181.457 0H174.53V49.4653H204.313V43.4686H181.457V0Z" fill="#E6EBF0"></path>
<path d="M305.096 26.503H335.31V20.5793H305.096V26.503ZM305.096 49.4653H335.31V43.5416H305.096V49.4653ZM305.096 0V5.92374H335.31V0H305.096Z" fill="#E6EBF0"></path>
<path d="M0 0.0235596V19.8415H102.849L118.588 0.0235596H0ZM0 118.916H24.1788L39.9171 99.0976H0V118.916ZM0 69.3772H63.514L79.2523 49.5593H0V69.3772Z" fill="#E6EBF0"></path>
</svg></svg></g></g><defs><clipPath id="SvgjsClipPath1086"><rect width="1000" height="1000" x="0" y="0" rx="350" ry="350"></rect></clipPath></defs></svg>